<?xml version="1.0" encoding="UTF-8" standalone="no"?>
<svg
   width="210mm"
   height="297mm"
   viewBox="0 0 210 297"
   version="1.1"
   id="svg8"
   inkscape:version="1.2.1 (9c6d41e410, 2022-07-14)"
   sodipodi:docname="SMD icon.svg"
   inkscape:export-filename="C:\Users\Noah\Desktop\app_icon.png"
   inkscape:export-xdpi="59.975899"
   inkscape:export-ydpi="59.975899"
   xmlns:inkscape="http://www.inkscape.org/namespaces/inkscape"
   xmlns:sodipodi="http://sodipodi.sourceforge.net/DTD/sodipodi-0.dtd"
   xmlns:xlink="http://www.w3.org/1999/xlink"
   xmlns="http://www.w3.org/2000/svg"
   xmlns:svg="http://www.w3.org/2000/svg"
   xmlns:rdf="http://www.w3.org/1999/02/22-rdf-syntax-ns#"
   xmlns:cc="http://creativecommons.org/ns#"
   xmlns:dc="http://purl.org/dc/elements/1.1/">
  <defs
     id="defs2">
    <radialGradient
       inkscape:collect="always"
       xlink:href="#linearGradient1009-9"
       id="radialGradient1013-8"
       cx="-307.96182"
       cy="40.0187"
       fx="-307.96182"
       fy="40.0187"
       r="250.16092"
       gradientUnits="userSpaceOnUse"
       gradientTransform="matrix(1.058246,0,0,1,99.248983,184.60377)" />
    <linearGradient
       inkscape:collect="always"
       id="linearGradient1009-9">
      <stop
         style="stop-color:#a4e186;stop-opacity:1"
         offset="0"
         id="stop1005-3" />
      <stop
         style="stop-color:#00cb3c;stop-opacity:1;"
         offset="0.77439076"
         id="stop1015-6" />
      <stop
         style="stop-color:#00c437;stop-opacity:1;"
         offset="1"
         id="stop1007-4" />
    </linearGradient>
    <filter
       inkscape:collect="always"
       style="color-interpolation-filters:sRGB"
       id="filter1171-5"
       x="-0.0892562"
       width="1.1785124"
       y="-0.0892562"
       height="1.1785124">
      <feGaussianBlur
         inkscape:collect="always"
         stdDeviation="7.7160915"
         id="feGaussianBlur1173-7" />
    </filter>
  </defs>
  <sodipodi:namedview
     id="base"
     pagecolor="#ffffff"
     bordercolor="#666666"
     borderopacity="1.0"
     inkscape:pageopacity="0.0"
     inkscape:pageshadow="2"
     inkscape:zoom="0.080557205"
     inkscape:cx="43.447386"
     inkscape:cy="-198.61662"
     inkscape:document-units="mm"
     inkscape:current-layer="g1218"
     inkscape:document-rotation="0"
     showgrid="false"
     showborder="false"
     inkscape:window-width="1366"
     inkscape:window-height="715"
     inkscape:window-x="-8"
     inkscape:window-y="-8"
     inkscape:window-maximized="1"
     inkscape:showpageshadow="0"
     inkscape:pagecheckerboard="0"
     inkscape:deskcolor="#d1d1d1" />
  <metadata
     id="metadata5">
    <rdf:RDF>
      <cc:Work
         rdf:about="">
        <dc:format>image/svg+xml</dc:format>
        <dc:type
           rdf:resource="http://purl.org/dc/dcmitype/StillImage" />
        <dc:title />
      </cc:Work>
    </rdf:RDF>
  </metadata>
  <g
     inkscape:label="Layer 1"
     inkscape:groupmode="layer"
     id="layer1">
    <circle
       style="fill:#ff0000;stroke-width:0.284179"
       id="circle837"
       cx="70.119095"
       cy="146.93495"
       r="0" />
    <circle
       style="fill:#000000;stroke-width:0.284179"
       id="circle839"
       cx="70.119095"
       cy="146.93495"
       r="0" />
    <circle
       style="fill:#000000;stroke-width:0.284179"
       id="circle841"
       cx="70.119095"
       cy="146.93495"
       r="0" />
    <circle
       style="fill:#000000;stroke-width:0.284179"
       id="circle843"
       cx="70.119095"
       cy="146.93495"
       r="0" />
    <circle
       style="fill:#000000;stroke-width:0.284179"
       id="circle857"
       cx="97.694031"
       cy="146.93495"
       r="0" />
    <g
       id="g1003"
       transform="translate(301.00288)">
      <g
         id="g1218"
         transform="matrix(1.4436659,0,0,1.4436659,-21.148784,-273.04439)">
        <ellipse
           style="fill:url(#radialGradient1013-8);fill-opacity:1;stroke-width:0.408492"
           id="path900-0"
           cx="-226.65038"
           cy="224.62247"
           rx="264.73178"
           ry="250.16092" />
        <circle
           style="opacity:0.223947;fill:#000000;fill-opacity:1;stroke-width:0.164669;filter:url(#filter1171-5)"
           id="circle1017-9"
           cx="-310.57913"
           cy="40.040619"
           r="103.73856"
           transform="matrix(0.98407574,0,0,0.92991212,76.213254,187.41013)" />
        <path
           id="rect871-8"
           style="fill:#0039ac;fill-opacity:1;stroke-width:0.467899"
           d="m -253.38393,-173.86982 c -131.62522,0 -237.5906,100.13305 -237.5906,224.513612 v 73.310158 h 41.94291 V 66.260532 c 0,-105.110352 89.54825,-189.729882 200.78082,-189.729882 h 56.00021 c 111.2326,0 200.780834,84.61953 200.780834,189.729882 v 57.693418 h 41.94399 V 50.643792 c 0,-124.380562 -105.966444,-224.513612 -237.591694,-224.513612 z" />
        <path
           id="path885-2"
           style="fill:#0039ac;fill-opacity:1;stroke-width:0.563262"
           d="m -450.55403,92.374876 a 125.5423,153.18466 0 0 0 -125.35167,153.184964 125.5423,153.18466 0 0 0 125.54249,153.18395 125.5423,153.18466 0 0 0 6.73711,-0.2204 V 92.596266 a 125.5423,153.18466 0 0 0 -6.73711,-0.22139 125.5423,153.18466 0 0 0 -0.19082,0 z" />
        <path
           id="path894-4"
           style="fill:#0039ac;fill-opacity:1;stroke-width:0.563262"
           d="M 1.42837,398.74375 A 125.5423,153.18466 0 0 0 126.78004,245.55878 125.5423,153.18466 0 0 0 1.23755,92.374832 a 125.5423,153.18466 0 0 0 -6.73711,0.2204 V 398.52236 a 125.5423,153.18466 0 0 0 6.73711,0.22139 125.5423,153.18466 0 0 0 0.19082,0 z" />
        <rect
           style="fill:#0039ac;fill-opacity:1;stroke-width:0.385262"
           id="rect896-0"
           width="17.333628"
           height="306.15109"
           x="10.653699"
           y="92.871307"
           ry="5.7034845"
           transform="scale(-1,1)" />
        <path
           id="rect888-0"
           style="fill:#0039ac;fill-opacity:1;stroke-width:0.385262"
           d="m -432.43628,92.871307 h 5.26225 c 3.34377,0 6.03569,2.543754 6.03569,5.703485 V 393.31891 c 0,3.15973 -2.69192,5.70348 -6.03569,5.70348 h -5.26225 c -3.34377,0 -6.03569,-2.54375 -6.03569,-5.70348 V 98.574792 c 0,-3.159731 2.69192,-5.703485 6.03569,-5.703485 z" />
        <ellipse
           style="fill:#0039ac;fill-opacity:1;stroke-width:0.148481"
           id="circle949-0"
           cx="-229.42015"
           cy="224.64438"
           rx="96.226227"
           ry="90.929924" />
        <path
           sodipodi:type="star"
           style="fill:#ffffff;fill-opacity:1;stroke-width:0.264583"
           id="path947-1"
           sodipodi:sides="3"
           sodipodi:cx="-989.48499"
           sodipodi:cy="-310.20471"
           sodipodi:r1="172.44148"
           sodipodi:r2="90.997551"
           sodipodi:arg1="0.52240343"
           sodipodi:arg2="1.569601"
           inkscape:flatsided="false"
           inkscape:rounded="0"
           inkscape:randomized="0"
           inkscape:transform-center-x="-14.91715"
           inkscape:transform-center-y="-0.031330753"
           transform="matrix(0,-0.23731721,-0.28580025,0,-322.06556,-10.14585)"
           d="m -840.04332,-224.16254 -149.33289,4.95531 -149.34429,-4.59829 70.375,-131.80374 78.65439,-127.03681 78.95787,126.84842 z"
           inkscape:export-filename="..\..\..\..\..\Desktop\icon.png"
           inkscape:export-xdpi="59.975899"
           inkscape:export-ydpi="59.975899" />
      </g>
    </g>
  </g>
</svg>
