<?xml version="1.0" standalone="no"?>
<!DOCTYPE svg PUBLIC "-//W3C//DTD SVG 20010904//EN"
 "http://www.w3.org/TR/2001/REC-SVG-20010904/DTD/svg10.dtd">
<svg version="1.0" xmlns="http://www.w3.org/2000/svg"
 width="2264.000000pt" height="2264.000000pt" viewBox="0 0 2264.000000 2264.000000"
 preserveAspectRatio="xMidYMid meet">
<metadata>
Created by potrace 1.14, written by Peter Selinger 2001-2017
</metadata>
<g transform="translate(0.000000,2264.000000) scale(0.100000,-0.100000)"
fill="#000000" stroke="none">
<path d="M10049 22366 c-2 -2 -58 -7 -124 -10 -66 -4 -136 -9 -155 -11 -19 -3
-66 -7 -105 -10 -38 -4 -82 -8 -98 -9 -15 -2 -55 -7 -90 -11 -34 -3 -73 -8
-87 -10 -14 -2 -63 -9 -110 -15 -47 -6 -94 -13 -105 -15 -11 -1 -36 -6 -55 -9
-19 -3 -46 -8 -60 -10 -14 -3 -63 -12 -110 -21 -47 -9 -96 -19 -110 -22 -338
-62 -893 -226 -1265 -375 -228 -91 -543 -231 -630 -280 -11 -6 -70 -37 -131
-69 -251 -130 -543 -308 -794 -482 -127 -89 -356 -259 -415 -308 -11 -9 -65
-54 -120 -100 -442 -366 -872 -818 -1212 -1274 -58 -77 -110 -147 -117 -155
-50 -63 -323 -487 -391 -607 -318 -562 -550 -1102 -715 -1663 -34 -118 -56
-196 -65 -237 -2 -10 -15 -61 -29 -113 -43 -165 -122 -571 -141 -725 -2 -21
-9 -73 -14 -115 -6 -41 -13 -102 -16 -135 -4 -33 -8 -71 -10 -85 -3 -22 -9
-85 -20 -235 -14 -180 -18 -479 -20 -1300 -1 -511 -3 -933 -4 -936 0 -4 -54
-32 -118 -64 -65 -32 -157 -81 -206 -109 -48 -28 -96 -55 -105 -61 -98 -56
-366 -251 -465 -336 -127 -112 -165 -147 -267 -249 -247 -248 -438 -486 -642
-800 -67 -104 -101 -162 -208 -355 -85 -153 -191 -383 -280 -604 -49 -125
-161 -448 -175 -507 -3 -10 -20 -77 -40 -149 -47 -173 -97 -391 -111 -485 -3
-19 -9 -51 -14 -70 -4 -19 -11 -60 -15 -90 -4 -30 -9 -64 -11 -75 -11 -64 -41
-312 -49 -415 -32 -383 -27 -954 11 -1265 3 -27 7 -61 9 -75 1 -14 6 -52 10
-85 13 -113 16 -130 40 -275 14 -80 39 -208 56 -285 17 -77 32 -148 34 -158 2
-10 7 -27 10 -37 3 -10 8 -27 10 -37 11 -56 84 -300 132 -443 215 -638 522
-1206 916 -1693 143 -178 370 -415 511 -534 43 -37 84 -72 90 -78 6 -6 52 -42
101 -81 263 -206 580 -390 890 -517 149 -61 491 -162 615 -180 19 -3 80 -12
135 -21 55 -8 134 -19 175 -23 96 -9 476 -10 485 -1 4 4 7 239 7 523 1 283 2
514 3 513 1 -2 39 -54 83 -116 l81 -114 0 -324 c0 -178 3 -339 6 -358 8 -41
55 -100 98 -123 25 -13 62 -18 167 -19 126 -1 138 0 181 23 46 24 99 91 99
124 0 11 22 -6 63 -48 606 -636 1270 -1159 1987 -1562 80 -45 156 -88 170 -97
44 -26 433 -219 486 -242 28 -12 80 -35 115 -51 283 -130 708 -286 1058 -387
164 -48 518 -138 586 -150 22 -3 76 -15 120 -25 44 -10 98 -20 120 -24 22 -3
47 -7 55 -10 19 -5 85 -16 130 -21 19 -2 46 -6 60 -9 40 -9 71 -14 125 -20 28
-3 64 -7 80 -10 46 -7 94 -13 160 -20 33 -4 71 -8 85 -11 14 -2 61 -6 105 -9
44 -4 94 -8 110 -10 223 -26 1030 -27 1305 -1 19 2 71 7 115 11 44 3 94 8 110
10 33 4 87 11 180 21 33 3 67 7 75 9 8 1 40 6 70 10 30 4 93 13 140 21 47 8
101 17 120 20 19 3 58 9 85 14 28 5 61 11 75 14 14 2 32 7 40 10 8 3 32 7 52
10 60 9 372 82 498 117 19 5 44 12 55 14 11 3 88 25 170 50 83 25 155 47 160
48 36 10 213 70 227 78 10 5 23 9 29 9 6 0 25 6 42 14 18 7 61 24 97 36 36 13
69 27 74 32 6 4 16 8 24 8 27 0 466 192 677 296 299 147 562 296 879 497 192
121 615 432 804 591 232 195 340 294 577 531 207 207 263 265 343 358 24 28
32 33 33 20 3 -129 8 -154 33 -196 41 -71 93 -91 236 -94 79 -1 130 3 162 13
53 17 100 63 117 116 7 21 12 184 13 463 l3 430 78 112 c43 62 79 113 81 113
2 0 3 -275 4 -610 0 -336 3 -614 7 -618 15 -16 504 -5 596 13 13 3 44 8 69 11
226 28 595 131 787 219 17 8 34 15 37 15 13 0 276 131 362 181 197 113 433
281 614 437 68 59 350 338 410 407 220 252 412 521 585 820 67 117 219 417
265 525 17 41 38 89 46 107 88 195 265 738 300 923 3 14 10 43 15 65 5 22 12
51 15 65 3 14 14 66 24 115 11 50 22 110 25 135 4 24 8 47 10 50 1 3 6 28 9
55 4 28 8 61 11 75 8 43 14 83 21 144 3 33 8 67 9 75 2 9 6 50 10 91 3 41 8
89 10 105 27 208 27 893 0 1160 -2 22 -7 65 -10 95 -8 82 -15 141 -21 177 -3
18 -7 54 -9 80 -3 27 -9 71 -15 98 -5 28 -12 70 -15 95 -4 24 -8 47 -10 50 -2
3 -6 26 -10 50 -5 37 -23 123 -50 250 -44 207 -178 650 -247 817 -6 15 -12 33
-14 38 -4 19 -102 250 -139 330 -51 110 -138 283 -175 344 -16 29 -30 54 -30
57 0 10 -131 225 -212 346 -66 101 -259 363 -277 378 -3 3 -28 32 -56 65 -108
130 -313 341 -444 455 -41 36 -79 70 -85 75 -6 6 -40 33 -76 60 -36 28 -67 52
-70 55 -17 17 -131 97 -230 161 -153 99 -149 96 -197 121 l-42 21 0 1021 c-1
562 -3 1068 -6 1126 -7 164 -16 293 -29 440 -13 134 -17 173 -36 310 -21 143
-25 171 -34 220 -3 14 -8 43 -11 64 -17 122 -98 488 -151 681 -79 291 -226
723 -308 909 -8 17 -42 96 -77 176 -63 147 -212 451 -279 570 -21 36 -48 85
-62 110 -374 673 -975 1417 -1558 1930 -52 45 -110 96 -127 112 -95 83 -371
298 -519 403 -476 339 -881 567 -1459 820 -417 182 -1045 374 -1505 460 -14 3
-34 7 -45 9 -40 8 -191 34 -230 40 -22 3 -51 8 -65 11 -34 6 -250 33 -325 40
-33 3 -76 8 -95 10 -19 3 -69 7 -110 10 -41 4 -106 9 -145 12 -76 7 -2950 15
-2956 9z m2541 -1720 c102 -4 208 -8 235 -10 116 -9 212 -18 240 -21 16 -2 55
-6 85 -10 577 -67 1309 -264 1768 -476 35 -16 66 -29 69 -29 14 0 403 -191
488 -240 22 -12 75 -42 118 -67 293 -166 687 -440 912 -634 244 -211 251 -218
439 -404 67 -67 147 -150 180 -185 32 -36 73 -81 90 -100 135 -149 357 -435
497 -640 74 -108 219 -338 219 -346 0 -3 8 -18 19 -32 32 -47 123 -216 213
-395 57 -114 178 -382 178 -393 0 -3 7 -20 15 -37 114 -248 299 -872 359
-1212 2 -16 12 -68 20 -115 8 -47 17 -103 21 -125 3 -22 7 -53 10 -70 5 -35
11 -78 20 -155 4 -30 8 -68 10 -85 2 -16 7 -73 10 -125 4 -52 9 -111 12 -130
3 -19 7 -324 10 -677 l5 -643 -168 3 -168 2 -141 210 c-204 306 -410 578 -633
838 -53 62 -101 117 -107 123 -5 6 -53 58 -105 114 -160 174 -405 415 -569
560 -41 36 -79 70 -85 75 -34 32 -215 182 -301 250 -55 43 -118 93 -140 110
-78 62 -301 219 -459 324 -703 466 -1480 827 -2306 1071 -181 54 -463 125
-615 156 -11 2 -55 11 -98 20 -42 8 -90 17 -105 20 -15 2 -49 9 -77 14 -107
20 -221 39 -283 46 -26 3 -54 7 -62 9 -8 2 -46 7 -85 11 -38 3 -72 8 -75 9 -3
2 -39 6 -80 10 -41 4 -91 8 -110 10 -120 12 -247 21 -430 31 -105 6 -657 5
-760 0 -131 -8 -272 -17 -307 -21 -21 -2 -76 -6 -123 -10 -47 -4 -87 -8 -90
-10 -3 -2 -40 -6 -83 -10 -43 -3 -86 -8 -95 -10 -9 -1 -39 -6 -67 -9 -27 -4
-79 -12 -115 -17 -36 -6 -78 -13 -95 -15 -49 -7 -148 -24 -175 -29 -14 -3 -41
-8 -60 -11 -50 -8 -304 -62 -321 -68 -8 -3 -25 -7 -39 -10 -65 -11 -340 -85
-515 -138 -718 -218 -1384 -518 -2013 -907 -391 -242 -713 -477 -1062 -774
-304 -259 -667 -621 -920 -917 -40 -47 -87 -101 -104 -121 -17 -20 -42 -51
-56 -69 -14 -18 -40 -52 -59 -74 -41 -49 -273 -360 -321 -431 -19 -27 -63 -92
-97 -144 l-63 -94 -1 64 c-1 206 3 954 6 1004 14 248 17 291 20 295 2 3 6 45
10 93 3 48 8 96 9 105 2 9 7 40 10 67 4 28 9 61 11 75 2 14 6 43 10 65 3 22
12 78 20 125 8 47 17 99 20 115 16 93 73 333 115 485 147 533 359 1042 635
1520 68 119 300 479 339 527 8 10 55 72 104 138 343 457 805 918 1272 1266
480 358 964 627 1530 851 109 43 427 153 470 163 8 2 62 17 120 34 99 29 335
88 390 97 14 3 68 13 120 24 114 23 199 38 260 46 25 3 70 9 100 14 30 5 84
12 120 15 36 3 72 8 80 10 8 2 53 7 100 11 47 3 108 8 135 10 28 2 145 7 260
10 116 4 211 7 212 8 5 4 1870 -3 2023 -8z"/>
</g>
</svg>
