<?xml version="1.0" standalone="no"?>
<!DOCTYPE svg PUBLIC "-//W3C//DTD SVG 20010904//EN"
 "http://www.w3.org/TR/2001/REC-SVG-20010904/DTD/svg10.dtd">
<svg version="1.0" xmlns="http://www.w3.org/2000/svg"
 width="1024.000000pt" height="1024.000000pt" viewBox="0 0 1024.000000 1024.000000"
 preserveAspectRatio="xMidYMid meet">
<metadata>
Created by potrace 1.14, written by Peter Selinger 2001-2017
</metadata>
<g transform="translate(0.000000,1024.000000) scale(0.100000,-0.100000)"
fill="#000000" stroke="none">
<path d="M4515 10233 c-565 -30 -1139 -212 -1622 -514 -850 -533 -1439 -1421
-1602 -2419 -40 -244 -43 -295 -48 -846 l-5 -551 -61 -29 c-150 -71 -326 -203
-478 -361 -745 -770 -917 -2179 -392 -3227 256 -510 646 -872 1095 -1015 155
-49 406 -83 493 -67 l35 7 0 2409 0 2408 -40 7 -40 7 0 299 c0 203 5 346 15
442 146 1335 1134 2403 2428 2622 213 36 388 45 892 45 607 0 790 -14 1080
-85 848 -205 1545 -767 1935 -1560 126 -256 202 -473 254 -725 48 -239 58
-345 63 -708 l5 -343 -83 1 c-46 1 -94 1 -106 1 l-23 -1 0 -2410 0 -2409 35
-7 c44 -8 203 3 313 22 327 56 676 260 925 540 519 585 750 1461 617 2338
-111 725 -471 1341 -982 1681 l-88 58 0 431 c0 485 -11 727 -41 931 -94 649
-329 1200 -731 1720 -114 147 -405 441 -553 559 -559 444 -1206 695 -1920 746
-124 9 -1216 11 -1370 3z"/>
<path d="M2053 6020 c-12 -5 -29 -23 -38 -39 -14 -27 -15 -267 -13 -2382 l3
-2351 28 -24 c24 -20 39 -24 93 -24 36 0 74 5 86 11 50 27 48 -94 48 2402 0
1675 -3 2333 -11 2356 -6 18 -24 38 -40 46 -31 16 -121 19 -156 5z"/>
<path d="M8027 6019 c-49 -29 -47 80 -46 -2371 0 -1261 4 -2320 8 -2352 10
-80 30 -96 122 -96 57 0 72 4 96 24 l28 24 0 2367 0 2367 -28 24 c-24 20 -38
24 -95 24 -37 0 -75 -5 -85 -11z"/>
<path d="M4815 5364 c-503 -90 -927 -459 -1090 -947 -59 -179 -70 -250 -70
-467 0 -218 11 -288 71 -469 141 -423 481 -763 901 -900 326 -106 704 -81
1017 69 279 132 534 390 666 672 101 216 135 375 134 633 0 172 -3 201 -28
310 -135 579 -573 1001 -1145 1100 -106 19 -349 18 -456 -1z m96 -987 c241
-116 782 -407 794 -427 13 -21 -1053 -575 -1072 -557 -11 12 -24 501 -19 702
6 213 16 415 21 415 1 0 126 -60 276 -133z"/>
</g>
</svg>
